<?xml version="1.0" standalone="no"?>
<!DOCTYPE svg PUBLIC "-//W3C//DTD SVG 20010904//EN"
 "http://www.w3.org/TR/2001/REC-SVG-20010904/DTD/svg10.dtd">
<svg version="1.0" xmlns="http://www.w3.org/2000/svg"
 width="360.000000pt" height="360.000000pt" viewBox="0 0 360.000000 360.000000"
 preserveAspectRatio="xMidYMid meet">
<metadata>
Created by potrace 1.14, written by Peter Selinger 2001-2017
</metadata>
<g transform="translate(0.000000,360.000000) scale(0.100000,-0.100000)"
fill="#000000" stroke="none">
<path d="M1620 3353 c-70 -10 -153 -49 -189 -88 -21 -23 -40 -46 -42 -51 -2
-5 -21 -22 -41 -38 -21 -16 -49 -51 -64 -81 -23 -49 -29 -54 -67 -60 -53 -9
-115 -37 -147 -65 -14 -12 -30 -25 -36 -28 -20 -12 -104 -133 -125 -181 -45
-100 -78 -206 -95 -306 -9 -48 -8 -248 1 -290 3 -17 8 -50 11 -75 3 -25 10
-52 15 -62 16 -30 11 -64 -11 -65 -24 -2 -52 -29 -69 -68 -35 -79 -32 -233 5
-290 9 -14 13 -25 9 -25 -10 0 36 -61 72 -96 58 -55 86 -64 150 -47 30 8 56
13 58 11 15 -18 75 -109 75 -113 0 -6 36 -59 55 -81 6 -7 27 -33 48 -57 44
-54 137 -126 202 -157 36 -17 45 -27 43 -44 -2 -11 -6 -20 -11 -18 -24 8 -137
-82 -137 -110 0 -6 -13 -27 -29 -47 -16 -21 -33 -49 -36 -64 -5 -19 -16 -29
-34 -33 -83 -18 -132 -36 -140 -53 -6 -10 -42 -44 -81 -75 -39 -32 -85 -72
-103 -89 -47 -45 -137 -159 -137 -174 0 -6 -6 -18 -13 -25 -20 -21 -127 -273
-127 -300 0 -5 527 -8 1170 -8 644 0 1170 3 1170 8 0 12 -26 81 -33 88 -4 4
-7 13 -7 21 0 22 -85 197 -123 255 -43 64 -122 147 -197 207 -30 24 -71 61
-91 81 -28 29 -50 41 -107 54 -64 16 -71 21 -77 46 -3 16 -13 34 -20 40 -8 7
-26 33 -41 58 -37 63 -61 86 -111 108 -25 10 -43 25 -43 33 0 9 32 33 72 56
99 55 199 157 283 288 59 93 72 107 89 102 12 -4 42 -9 68 -12 38 -4 53 -1 80
18 130 89 185 267 132 429 -17 52 -63 98 -85 84 -9 -5 -10 2 -6 27 4 19 13 72
22 119 16 83 22 300 11 350 -3 14 -9 41 -13 60 -9 42 -8 41 -15 60 -4 8 -16
45 -29 81 -22 66 -22 67 -2 95 28 42 43 82 49 128 3 23 7 47 9 54 3 6 1 12 -4
12 -5 0 -16 -18 -25 -40 -15 -38 -36 -54 -36 -28 0 8 -5 6 -12 -3 -40 -47 -44
-46 -120 33 -69 70 -144 118 -184 118 -9 0 -60 31 -113 69 -107 76 -205 133
-270 156 -24 8 -78 30 -120 49 -42 19 -89 38 -106 41 -37 8 -141 13 -175 8z"/>
</g>
</svg>
